<?xml version="1.0" standalone="no"?>
<!DOCTYPE svg PUBLIC "-//W3C//DTD SVG 20010904//EN"
 "http://www.w3.org/TR/2001/REC-SVG-20010904/DTD/svg10.dtd">
<svg version="1.0" xmlns="http://www.w3.org/2000/svg"
 width="2084.000000pt" height="2084.000000pt" viewBox="0 0 2084.000000 2084.000000"
 preserveAspectRatio="xMidYMid meet">
<metadata>
Created by potrace 1.14, written by Peter Selinger 2001-2017
</metadata>
<g transform="translate(0.000000,2084.000000) scale(0.100000,-0.100000)"
fill="#000000" stroke="none">
<path d="M3175 17398 l0 -693 2308 0 c2300 0 2307 0 2308 -20 4 -129 -1 -1678
-5 -1682 -3 -4 -580 -7 -1282 -7 l-1277 -1 -74 -190 c-41 -104 -110 -284 -154
-400 -44 -115 -84 -219 -89 -230 -8 -17 -167 -427 -285 -735 -18 -47 -71 -186
-120 -310 -48 -124 -132 -342 -187 -485 -56 -143 -137 -352 -180 -465 -44
-113 -90 -232 -103 -265 -12 -33 -82 -213 -154 -400 -73 -187 -166 -428 -207
-535 -41 -107 -78 -204 -83 -215 -5 -11 -23 -58 -41 -105 -18 -47 -36 -94 -40
-105 -10 -23 -116 -295 -132 -340 -6 -16 -16 -43 -23 -60 -31 -77 -50 -125
-130 -335 -47 -124 -89 -234 -93 -245 -6 -15 -9 -6866 -3 -6897 0 -3 3302 -6
7336 -6 5616 0 7335 2 7336 11 0 7 1 1558 1 3447 l0 3435 -55 140 c-30 77 -85
219 -122 315 -37 96 -75 195 -85 220 -11 25 -161 414 -335 865 -175 451 -344
890 -377 975 -33 85 -75 193 -93 240 -17 47 -36 94 -40 105 -5 11 -9 22 -10
25 -1 3 -5 14 -10 25 -4 11 -17 43 -27 70 -10 28 -22 59 -27 70 -11 25 -42
105 -116 300 -59 155 -139 360 -231 595 -29 74 -71 185 -94 245 -23 61 -66
171 -95 245 -28 74 -71 185 -95 245 -23 61 -64 166 -90 235 -27 69 -77 197
-111 285 -33 88 -68 176 -76 196 l-15 36 -1267 1 c-696 0 -1274 1 -1283 1 -16
1 -17 61 -16 851 l0 850 31 1 c18 0 1068 1 2335 1 1656 1 2302 4 2303 12 1 14
1 1336 0 1359 -1 16 -356 17 -7314 17 l-7312 0 0 -692z"/>
</g>
</svg>
